<?xml version="1.0" encoding="UTF-8"?>
<svg id="dgfh_logo_Image" data-name="dgfh logo Image" xmlns="http://www.w3.org/2000/svg" viewBox="0 0 1675.38 396.77">
  <defs>
    <style>
      .cls-1 {
        fill: #ed7a0a;
      }

      .cls-2 {
        fill: #0e8d93;
      }

      .cls-3 {
        fill: #ff6434;
      }
    </style>
  </defs>
  <g>
    <path class="cls-2" d="M790.26,325.68c-.43,12.29-2.16,39.96,6.6,48.9,6.15,6.28,15.86,3.79,18.45,5.55,2.92,1.99.4,6.07-3.5,6.59-6.32.86-16.3-1.78-23.01-2.08-5.32-.24-11.77-.25-17.09,0-4.89.22-21.91,4.15-23.97.06-2.89-5.75,4.69-4.98,8.22-6.81,5.35-2.77,7.59-11.21,8.18-16.82,3.51-33.64-2.37-72.67.13-106.88.6-14.08-17.5-12.29-22.57-16.42-1.51-1.23-2.35-4.35-.48-5.62,2.48-1.69,16.45,1.38,20.51,1.59,12.03.64,22.59-1.76,34-2.08,4.05-.11,14.49-.67,9.63,5.63-2.82,3.65-12.88,1.44-14.85,13.15-1.39,8.27-1.01,30.93-.28,39.8.56,6.83,1.64,7.94,8.5,8.5,14.74,1.21,42.42,1.31,57.09,0,5.78-.51,7.34-2.11,8.19-7.81,1.04-7.03,1.26-31.77.03-38.5-.8-4.4-4.06-8.06-7.84-10.16-4.21-2.35-14.8-2.96-15.78-6.26-2.35-7.94,15.95-2.53,20.36-2.32,5.34.26,11.69.29,17.03.05,4.5-.2,26.33-3.98,28.37-.95,3.33,4.94-8.54,7.13-11.45,9.87-2.75,2.58-4.05,5.79-4.46,9.54,2.07,33.7-2.77,70.68.02,103.99.73,8.76,3.53,19.14,12.75,22.25,2.7.91,12.56,1.48,13.14,2.35.88,1.32-.31,4.63-1.91,5.42-4.11,2.01-19.86-1.29-25.46-1.55-5.96-.27-13.07-.23-19.03.05-4.44.21-18.99,3.84-21.6.59-4.8-5.97,6.17-5.83,9.61-8.57,8.85-7.06,6.84-38.75,6.48-50.02-.29-8.84,2.46-16.14-8.46-17.04-15.17-1.24-41.86-1.19-57.07,0-10.4.81-8.16,7.34-8.47,16.04Z"/>
    <path class="cls-2" d="M1346.26,286.68v18.5c0,.12,1.45,2,2,1.01,10.74-13.22,25.16-18.68,42.02-14.03,17.2,4.75,21.02,22.25,22.02,37.98.69,10.76-2.14,32.51.62,41.38,2.43,7.79,9.47,7.46,15.33,9.72,5.22,2.01.19,5.06-3.47,5.46-8.66.96-20.62-2.69-31-2-3.29.22-13.2,3.56-15.07,1.04-2.53-3.41,2.18-3.42,4.26-4.85,4.06-2.81,5.31-4.96,6.04-9.96,1.56-10.71,1.18-41.33-2.26-51.21-4.65-13.38-16.42-19.84-30-14.05-4.87,2.08-8.92,6.7-10.04,11.96-1.72,8.11-1.26,36.49-.48,45.59.72,8.38,3.24,13.7,11.48,16.52,4.31,1.47,10.39-.41,8.12,6.02l-53.11-.04c-2.67-3.84,5.86-5.36,8.1-7.97,1.39-1.61,2.05-3.58,2.35-5.65,1.64-11.68,1.29-44.75.08-56.9-.46-4.57-1.36-9.65-6.55-10.45-2.62-.41-9.55,1.33-8.31-3.41.83-3.19,16.85-5.81,20.83-7.19,6.04-2.1,11.18-5.77,17.04-7.46Z"/>
    <path class="cls-2" d="M1029.61,384.33c-6.63-6.97-6.58-19.48-3.14-27.94,7.3-17.97,34.3-19.64,50.61-23.9,4.16-13.21-1.54-35.27-18.32-34.89-5.47.12-9.42,2.41-10.11,8.06-.44,3.66,1.8,6-.34,9.58-2.53,4.24-19.56,6.91-20.92,1.71-.4-1.52.8-6.55,1.37-8.27,7.4-22.29,55.79-24.22,67.68-4.7,5.65,9.28,4.03,29.94,3.85,41.23-.14,8.96-6.21,32.66,9.35,31.43,2.39-.19,7.65-4.06,7.65.54,0,3.32-15.85,11.25-19.56,11.52-9.52.69-14.36-5.88-18.98-13.01-11.42,8.74-37.05,21.38-49.15,8.63ZM1069.01,339.95c-13.42,1.9-25.21,16.49-20.81,30.29,3.7,11.61,24.07,8.5,27.57-.54,1.51-3.88,2.5-24.86,1.34-28.38-.86-2.63-5.98-1.67-8.1-1.37Z"/>
    <path class="cls-2" d="M963.02,290.94c16.03-2.19,31.08,5.34,40.07,18.41,3.51,5.1,11.43,20.76,1.6,22.26-15.43,2.36-36.32-1.99-51.98.02-8.95,1.15-2.67,18.82,0,24.09,8.75,17.25,29.83,25.78,46.45,13.37,1.94-1.45,9.56-11.31,11.04-5.81.92,3.41-9.79,13.05-12.63,15.23-30.13,23.14-69.42,5.36-72.31-32.35-1.8-23.4,12.68-51.79,37.74-55.23ZM963,296.92c-8.12,1.32-14.65,11.71-15.65,19.34-.55,4.18-1.29,7.91,3.36,8.47,5.46.66,29.13.5,33.1-1.99,4.53-2.84,2.06-9.53.32-13.43-3.69-8.22-11.79-13.9-21.13-12.39Z"/>
    <path class="cls-2" d="M1249.02,290.94c16.03-2.19,31.08,5.34,40.07,18.41,3.51,5.1,11.43,20.76,1.6,22.26-15.43,2.36-36.32-1.99-51.98.02-8.95,1.15-2.67,18.82,0,24.09,8.75,17.25,29.83,25.78,46.45,13.37,1.94-1.45,9.56-11.31,11.04-5.81.92,3.41-9.79,13.05-12.63,15.23-30.13,23.14-69.42,5.36-72.31-32.35-1.8-23.4,12.68-51.79,37.74-55.23ZM1249,296.92c-8.12,1.32-14.65,11.71-15.65,19.34-.55,4.18-1.29,7.91,3.36,8.47,5.46.66,29.13.5,33.1-1.99,4.53-2.84,2.06-9.53.32-13.43-3.69-8.22-11.79-13.9-21.13-12.39Z"/>
    <path class="cls-2" d="M1159.26,293.69c1.41,8.85-14.77,2.97-13.98,13.37,5.11,13.34,10.63,27.46,16.8,40.3,5.72,11.91,6.16,11.69,12.7.34,4.45-7.73,15.55-29.57,16.42-37.62,1.21-11.24-5.14-10.16-12.22-12.61-3.65-1.26-1.97-4.92,2.78-4.88,6.1.06,14.97,2.38,20.95,2.12,1.68-.07,16.57-4.58,9.09,3.01-3.03,3.07-4.76,2.03-8.34,7.66-12.52,19.66-21.54,46.89-34.03,67.97-3.43,5.79-9.57,20.34-15.37,10.03-13.29-23.65-21.85-58.48-36.61-80.39-2.52-3.74-9.13-6.28-9.24-6.85-1.11-6.08,11.66-1.64,15.5-1.42,11.82.68,23.68-2.02,35.54-1.04Z"/>
  </g>
  <g>
    <path class="cls-3" d="M585.95,291.57v16.5c0,.12,1.45,2,2,1.01,11.07-15.81,33.25-20.91,45.99-4.01,2.24,2.97,2.49,8.39,5.44,5.43,9.75-9.78,14.99-17.08,31.05-15.92,35.45,2.56,21.87,47.82,25.75,69.24,1.47,8.11,8.11,6.97,9.33,8.67.96,1.33.28,4.35.43,6.07-.62.62-14.62-1.97-17.45-2.05-3.97-.11-20.79,2.81-21.55,2.04-3.25-3.31,8.04-6.82,8.94-12.55,1.3-8.22.74-39.63-1.64-47.24-3.61-11.53-12.43-14.17-23.53-10.94-6,1.75-9.22,6.03-9.82,12.19-.8,8.26-1.07,35.14.49,42.61,2.45,11.64,15.19,9.13,16.47,11.03.44.66.19,3.22-.35,3.99-1.7,2.44-24.94-1.45-30.1-1.1-2.22.15-19.49,5.05-15-2.01,1.35-2.13,7.47-2.1,8.48-8.52,1.27-8.04.74-41.88-1.89-49-5.73-15.56-29.31-13.1-32.62,2.5-1.57,7.38-1.25,33.4-.48,41.6,1.14,12.23,7.94,9.04,15.76,13.23,1.33.71,2.16.64,1.27,2.73-1.61,3.75-18.62-.34-22.45-.53-8.13-.41-14.75,1.51-22.57,1.58-3.48-4.16,3.46-5.14,5.48-7.59,1.18-1.44,2.21-4.66,2.47-6.53,1.29-9.59,1.18-37.12.09-46.91-.43-3.85-1.59-7.33-5.71-8.29-2.25-.52-8.55.8-7.2-3.62.64-2.1,18.5-6.61,21.92-8.09,3.65-1.58,6.91-5.41,11-5.5Z"/>
    <path class="cls-3" d="M371.81,242.71c1.24.77,3.67,25.85,2.69,28.91-.55,1.7-2.99,4.59-4.61,2.36-.93-10.57-2.12-17.11-13.13-20.71-6.62-2.17-27.26-2.73-34.24-1.64-2.98.47-5.68,2.65-6.35,5.65-1.16,5.18-.93,30.85-.24,36.81.23,1.98,1.11,5.07,3.02,5.98,2.86,1.36,21.97.69,25.56-.44,9.16-2.89,9.66-14.7,12.39-16.61,1.02-.71,2.07-.72,3.1.02,1.89,1.37.73,17.35.97,21.03.26,3.94,4.08,24.36.48,25.5-3.88,1.23-4.53-7.48-5.71-10.26-4.8-11.26-20.48-10.9-31.16-9.61-4.86.58-7.46,1.45-8.38,6.62-1.61,9.09-.91,38.51,2.74,46.78,1.43,3.25,2.89,5.25,6.12,6.88,3.33,1.69,13.23,2.47,13.82,4.2,2.62,7.68-9.2,2.66-12.43,2.41-7.87-.62-19.05-.45-27.03-.05-3.9.2-14.91,3.29-17.49,1.56-4.88-3.26,5.54-6.88,6.99-8.06,3.38-2.73,4.63-8.79,5.02-12.98,2.72-29.19-1.99-62.36,0-91.97-.69-6.82-3.34-11.56-10.02-13.98-4.79-1.74-13.1-.08-10.54-6.6l98.43-1.79Z"/>
    <path class="cls-3" d="M492.73,295.85c61.82-7.47,65.76,78.94,8.7,83.71-60.54,5.06-62.08-77.26-8.7-83.71ZM490.69,301.81c-29.65,4.98-17.48,77.06,15.53,71.52,29.97-5.04,16.62-76.92-15.53-71.52Z"/>
    <path class="cls-3" d="M409.63,292.7c5.49-.51-1.7,18.91,2.82,18.84,1.29-.02,12.32-16.48,19.06-16.95,3.87-.27,16.43,8.27,17.31,11.68.48,1.85-2.36,6.45-3.45,8.21-10.09,16.3-10.72-2.46-24.95-.99-3.6.37-8.54,6.58-9.26,9.79-1.11,4.96-.83,33.08.23,38.35,1.3,6.42,4.82,9.16,10.55,11.45,2.46.98,6.62-.41,6,3.98-.95,2.97-15.01-.37-18.44-.54-4.02-.2-9.03-.19-13.03.06-2.72.17-17.6,4.93-15.49-1.49.64-1.94,8.53-1.12,9.88-11.12s1.2-37.91.09-47.91c-.23-2.11-.8-5.11-2.45-6.55-2.67-2.34-11.05-.93-9.54-5.44.32-.96,16.13-4.57,19.25-5.75,2.73-1.03,9.74-5.47,11.41-5.63Z"/>
  </g>
  <g>
    <path class="cls-2" d="M1245.36,145.09c7.04-7.04,7.67-35.29.39-42.21-1.35-1.28-4.57-3.03-6.34-3.66-5.84-2.08-15.94.18-14.61-7.71,1.78-2.66,17.63.8,21.37.95,7.5.31,16.61.37,24.08,0,3.88-.19,19.1-4.35,20.39-.43,1.72,5.26-5.34,5.19-8.43,7.38-4.7,3.32-6.09,11.01-6.53,16.47-.5,6.29,2.45,23.99-.5,27.5-1.51,1.79-27.03,12.28-31.22,13.78-14.67,5.28-29,9.47-44.79,8.29-99.76-7.46-74.53-185.66,37.53-155.53,6.73,1.81,25.39,10.83,30.3,9.29,1.55-.49,4.87-5.31,7.25-1.85,1.01,1.48.46,17.17.49,20.59.02,1.75-.86,3.42-.84,4.96.06,4.94,2.02,12.44,1.89,17.01-.1,3.65-3.28,4.94-5.62,2.52-1.15-1.18-4.1-13.43-5.93-17.07-8.16-16.18-26.82-29.55-45.06-30.94-79.2-6.05-65.67,146.75-2.1,140.86,6.75-.63,23.52-5.46,28.28-10.22Z"/>
    <path class="cls-2" d="M1399.05,161.08c-6.63-6.97-6.58-19.48-3.14-27.94,7.3-17.97,34.3-19.64,50.61-23.9,4.16-13.21-1.54-35.27-18.32-34.89-5.47.12-9.42,2.41-10.11,8.06-.44,3.66,1.8,6-.34,9.58-2.53,4.24-19.56,6.91-20.92,1.71-.4-1.52.8-6.55,1.37-8.27,7.4-22.29,55.79-24.22,67.68-4.7,5.65,9.28,4.03,29.94,3.85,41.23-.14,8.96-6.21,32.66,9.35,31.43,2.39-.19,7.65-4.06,7.65.54,0,3.32-15.85,11.25-19.56,11.52-9.52.69-14.36-5.88-18.98-13.01-11.42,8.74-37.05,21.38-49.15,8.63ZM1438.46,116.69c-13.42,1.9-25.21,16.49-20.81,30.29,3.7,11.61,24.07,8.5,27.57-.54,1.51-3.88,2.5-24.86,1.34-28.38-.86-2.63-5.98-1.67-8.1-1.37Z"/>
    <path class="cls-2" d="M1621.46,67.68c16.03-2.19,31.08,5.34,40.07,18.41,3.51,5.1,11.43,20.76,1.6,22.26-15.43,2.36-36.32-1.99-51.98.02-8.95,1.15-2.67,18.82,0,24.09,8.75,17.25,29.83,25.78,46.45,13.37,1.94-1.45,9.56-11.31,11.04-5.81.92,3.41-9.79,13.05-12.63,15.23-30.13,23.14-69.42,5.36-72.31-32.35-1.8-23.4,12.68-51.79,37.74-55.23ZM1621.44,73.67c-8.12,1.32-14.65,11.71-15.65,19.34-.55,4.18-1.29,7.91,3.36,8.47,5.46.66,29.13.5,33.1-1.99,4.53-2.84,2.06-9.53.32-13.43-3.69-8.22-11.79-13.9-21.13-12.39Z"/>
    <path class="cls-2" d="M1340.71,86.42c4.58.62,5.52-4.72,8.02-7.47,10.12-11.15,14.17-15.54,27.31-5.35,9.05,7.02,9.34,9.49,2.51,19.17-9,12.74-10.36-.44-19.81-2.87-2.88-.74-8.77-1.06-11.33.47-.64.38-5.25,6.47-5.67,7.58-1.87,4.98-1.73,39.35-.57,45.52,1.16,6.19,4.9,10,10.56,12.44,3.8,1.64,10.62,1.02,8.87,5.88-1.22,3.4-15.71-.25-19.34-.41-11.08-.5-19.7,1.45-30.08,2.06-3.23.19-7.88-1.34-5.37-4.93.27-.38,6.14-1.64,8.33-4.16,1.47-1.69,3.18-6.25,3.49-8.51,1.51-11.06,1.2-40.46.13-51.95-.35-3.77-.98-7.51-4.81-9.19-2.28-1-12.71-1.01-9.14-6.18.57-.83,16.17-3.92,19.43-5.07,6.16-2.18,11.04-5.53,16.96-8.02,3.81.73-.65,17.62.53,21Z"/>
    <path class="cls-2" d="M1572.7,142.43c2.96,3.16-9,11.66-11.27,13.22-41.69,28.49-85.28-9.25-68.21-55.21,9.06-24.41,39.1-39.48,64.04-31.06,6.16,2.08,16.45,10.84,14.05,18.09-.87,2.63-13.92,10.98-16.12,10.94-4.22-.08-3.09-5.55-3.93-8.03-9.21-27.55-36.63-16.84-39.43,9.68-3.14,29.81,14.39,61.11,48.14,48.14,2.01-.77,11.93-6.62,12.73-5.76Z"/>
  </g>
  <g>
    <path class="cls-1" d="M7.93,15.57c1.37-2.05,31.31-.85,36.44-1.05,25-.98,46.04-5.67,70.44,4.48,51.67,21.48,46.79,91.63,2.94,118.9-28.21,17.55-52.9,6.97-83.46,8.54-4.25.22-17.2,4.93-16.52-1.46.34-3.19,6.49-2.54,9.48-5.58,2.22-2.25,3.25-6.33,3.57-9.43,2.97-29.25-2.19-63.23.02-92.99-1.06-8.01-5.94-14.16-13.94-16.06-2.38-.57-12.66.16-8.96-5.35ZM55.09,22.73c-1.3,1.39-2.13,6.15-2.3,8.21-2.02,24.13-1.71,65.74,0,90.08.89,12.67,4.37,18.37,17.8,20.2,74.05,10.08,77.34-115.57,5.73-121.73-4.62-.4-18.01-.19-21.23,3.24Z"/>
    <path class="cls-1" d="M809.83,33.98c-.19-1.56-2.26-8.19-3.28-9.22-2.59-2.6-13.75-1.53-10.27-6.33.75-1.03,16.52-3.93,19.83-5.17,3.64-1.37,9.45-6.09,11.44-6.6,5.59-1.42,2.33,7.66,2.25,10.28-1.15,36.27.93,72.74.05,109.03.96,5.25,1.1,9.51,6.92,11.08,3.89,1.05,8.7-.83,6.64,5.51l-33.57,6.92c-.19-3.47.25-7.05,0-10.52-.11-1.49.78-2.89-1.49-2.48-22.72,23.24-59.77,14.37-61.56-20.46-1.39-26.96,17.39-53.3,46.42-50.42,4.19.42,11.73,3.91,14.19,3.86.93-.02,2.43-.92,2.43-1.48,0-10.23,1.17-24.35,0-34ZM781.56,71.72c-28.42,4.83-19,70.45,15.53,64.52,3.91-.67,11.58-4.26,12.52-8.47,1.09-4.89.94-35.29-.02-40.55-2-10.96-18.08-17.18-28.03-15.49Z"/>
    <path class="cls-1" d="M1090.89,85.57c-.34.46,1,5.61,1.01,7.39.13,20.81-22.91,25.81-39.56,25.51-5.23-.09-13.21-4.1-15.02,3.98-3.34,14.95,20.04,10.41,29.05,10.99,13.52.87,31.9,1.62,31.53,19.56-.62,30.21-48.01,33.67-68.59,24.51-16.48-7.34-12.63-25.68,4.52-27.03-1.95-5.17-6.72-6.35-7.75-12.73-1.79-11.02,5-15.06,10.76-22.73-17.97-10.06-21-31.84-2.7-43.73,9.79-6.36,22.76-7.05,33.9-4.51,4.06.93,14.08,6.47,15.81,6.32,7.54-.65,9.96-4.35,12.7-10.4,2.32-5.13,4.34-3.79,4.37,1.28.02,2.64-1.7,14.13-2.54,16.55-1.43,4.14-6.85,4.17-7.49,5.04ZM1052.55,70.71c-18.37,3.82-14.9,46.89,6.71,43.71,18.78-2.77,17.42-48.72-6.71-43.71ZM1040.54,151.68c-8.12,3.01-8.74,11.86-3.26,17.84,8.07,8.82,30.22,9.02,39.88,2.79,6.41-4.14,8.95-12.87.66-16.33-12.18-2.8-24.84-3.21-37.28-4.3Z"/>
    <path class="cls-1" d="M252.83,66.48c.7-.71,12.04,1.88,14.46,2.03,3.33.22,7.68.17,11.02-.05,1.31-.09,21.07-4.6,13.52,2.52-4,3.77-9.15,2.67-7.78,11.75.6,3.95,12.08,30.01,14.58,34.46.7,1.25,3.1,4.68,4.66,4.3,1.67-.41,15.1-26.07,17.28-29.65.24-2.72-5.83-14.45-7.88-16.71-1.95-2.14-11.32-5.05-6.89-8.18,1.65-1.17,10.58,1.39,13.49,1.58,8.23.53,14.76-1.7,22.19-1.97,3.38-.12,6.53,1.83,3.32,4.41-3.71,2.98-9.19,1.11-7.93,9.95.53,3.71,12.36,31.06,14.75,35.27,2.98,5.23,4.15,3.54,6.73-.67,4.48-7.3,15.63-29.65,14.41-37.46-1.31-8.41-13.61-4.76-11.93-10.06,1.16-3.66,17.04.04,20.5.48,2.67.34,9.59-1.37,9.53,2.53-.03,2.22-5.98,4.63-7.01,7.01-12.69,23.04-22.86,47.59-34.99,71.02-1.02.77-2.03.66-3.08,0-3.69-2.34-19.34-49.43-22.46-49.52-5.59,4.82-25.6,50.06-29,50.04-2.05-.01-2.64-2.27-3.37-3.69-9.03-17.45-22.08-60.31-33.6-72.4-1.16-1.22-7-4.45-4.53-6.96Z"/>
    <path class="cls-1" d="M426.83,61.48v16.5c0,.24.92,1.48,2,1.01,3.88-1.68,7.65-9.28,16.03-11.98,25.43-8.22,38.33,8.51,40.01,31.93.7,9.81-1.95,28.07.62,36.38s10.8,6.23,14.34,8.66c4.62,3.18-2.64,4.62-5.5,4.59-8.32-.08-15.73-2.83-24.98-2.08-2.83.23-12.47,3.83-13.51.47s5.24-4.26,7.03-6.95c.94-1.41,1.43-3.62,1.7-5.3,1.45-9.33,1.09-36.74-2.25-45.23-7.53-19.15-33.84-16.74-35.53,2.45-.68,7.7-.93,36.66,1.3,42.78,2.94,8.05,7.93,6.86,14.03,8.97,4.84,1.68.91,4.73-3.79,4.85-8.08.21-16.13-2.6-24.99-2.05-2.61.16-14.8,3.67-15.51.47-.48-2.16,7.87-3.75,8.9-11.08,1.45-10.29,1.16-39.21.1-49.91-.16-1.58-1.3-6.32-2.24-7.26-2.42-2.43-12.46.65-10.73-4.7.59-1.83,17.69-5.39,21.23-6.77,4.11-1.61,7.64-4.24,11.74-5.76Z"/>
    <path class="cls-1" d="M941.83,61.48v16.5c0,.24.92,1.48,2,1.01,3.88-1.68,7.65-9.28,16.03-11.98,25.43-8.22,38.33,8.51,40.01,31.93.7,9.81-1.95,28.07.62,36.38,2.67,8.62,10.8,6.23,14.34,8.66,4.62,3.18-2.64,4.62-5.5,4.59-8.32-.08-15.73-2.83-24.98-2.08-2.83.23-12.47,3.83-13.51.47-1.09-3.5,5.24-4.26,7.03-6.95.94-1.41,1.43-3.62,1.7-5.3,1.45-9.33,1.09-36.74-2.25-45.23-7.53-19.15-33.84-16.74-35.53,2.45-.68,7.7-.93,36.66,1.3,42.78,2.94,8.05,7.93,6.86,14.03,8.97,4.84,1.68.91,4.73-3.79,4.85-8.08.21-16.13-2.6-24.99-2.05-2.61.16-14.8,3.67-15.51.47-.48-2.16,7.87-3.75,8.9-11.08,1.45-10.29,1.16-39.21.1-49.91-.16-1.58-1.3-6.32-2.24-7.26-2.42-2.43-12.46.65-10.73-4.7.59-1.83,17.69-5.39,21.23-6.77,4.11-1.61,7.64-4.24,11.74-5.76Z"/>
    <path class="cls-1" d="M706.58,100.24c4.14-3.5-.3-19.04-3.91-23.11-4.06-4.57-16.68-7.55-18.65-.96-2.35,7.86,3.89,13.1-10.7,14.29-5.71.46-9,1.27-8.26-5.21,2.58-22.45,44.11-25.3,57.17-11.68,11.71,12.22,1.74,43.71,4.83,59.17.94,4.69,4.44,7.04,9.15,6.69,1.47-.11,8.52-3.69,6.14,1.06-1.46,2.92-13.54,8.83-17.06,9.03-7.96.44-11.61-5.48-15.95-11-13.33,10.18-45.79,20.22-47.55-5.51-1.01-14.68,8.11-22.79,21.03-27.05,3.79-1.25,22.68-4.81,23.77-5.73ZM707.83,106.48c-14.03-1.48-28.67,10.32-25.55,25.06s25.55,7.96,25.55-3.56v-21.5Z"/>
    <path class="cls-1" d="M202.61,65.76c61.82-7.47,65.76,78.94,8.7,83.71-60.54,5.06-62.08-77.26-8.7-83.71ZM200.56,71.72c-29.65,4.98-17.48,77.06,15.53,71.52,29.97-5.04,16.62-76.92-15.53-71.52Z"/>
    <path class="cls-1" d="M599.61,65.76c61.82-7.47,65.76,78.94,8.7,83.71-60.54,5.06-62.08-77.26-8.7-83.71ZM597.56,71.72c-29.65,4.98-17.48,77.06,15.53,71.52,29.97-5.04,16.62-76.92-15.53-71.52Z"/>
    <path class="cls-1" d="M538.82,5.48v10.48c1.19,34.96-5.04,78.65-.88,112.9.85,7.03,2.75,10.28,9.34,12.66,3.18,1.15,9.17.18,7.46,5.34-1.06,3.2-13.75-.26-17.36-.44-5.21-.27-11.83-.25-17.03.06-2.84.17-14.22,4.39-12.43-1.43.44-1.44,5.57-2.9,7.38-5.63,1.62-2.44,2.02-5.65,2.52-8.48-1.77-30.55,2.4-63.8.05-94.02-.37-4.77-1.34-11.63-6.29-13.71-3.04-1.28-8.02.18-6.8-5.17.33-1.46,16.43-4.75,19.33-5.82,2.39-.88,13.86-7.65,14.72-6.77Z"/>
    <path class="cls-1" d="M884.83,62.48v69.5c0,4.92,4.61,9.41,9.18,10.82,1.99.62,10.5.5,7.82,4.66-1.74,2.7-26.33-1.31-31.54-1.02-2.09.12-22.57,4.65-13.4-2.41,4.63-3.56,6.88-4,7.86-11.14,1.33-9.77.98-33.74.12-43.95-.37-4.35-.84-9.11-5.75-10.25-2.71-.63-8.24.96-7.31-3.7.32-1.62,15.45-4.69,18.3-5.73,5.08-1.86,9.6-5.78,14.73-6.77Z"/>
    <path class="cls-1" d="M873.47,16.63c3.14-.61,13.28,12.48,13.29,15.34,0,3.68-10.53,18.35-15.5,14.58-.92-.7-10.4-12.76-10.48-13.62-.24-2.67,10.41-15.85,12.7-16.3Z"/>
  </g>
</svg>