<?xml version="1.0" encoding="UTF-8"?>
<svg id="Layer_2" data-name="Layer 2" xmlns="http://www.w3.org/2000/svg" xmlns:xlink="http://www.w3.org/1999/xlink" viewBox="0 0 3185 407">
  <defs>
    <style>
      .cls-1 {
        fill: #ffcb00;
        stroke-width: 0px;
      }

      .cls-2 {
        filter: url(#drop-shadow-2);
      }
    </style>
    <filter id="drop-shadow-2" filterUnits="userSpaceOnUse">
      <feOffset dx="7" dy="7"/>
      <feGaussianBlur result="blur" stdDeviation="5"/>
      <feFlood flood-color="#000" flood-opacity=".75"/>
      <feComposite in2="blur" operator="in"/>
      <feComposite in="SourceGraphic"/>
    </filter>
  </defs>
  <g id="Layer_1-2" data-name="Layer 1">
    <g class="cls-2">
      <path class="cls-1" d="M64.37,140.34v-1.33h44.3c6.2,0,11.91.53,17.15,1.6,5.23,1.07,9.92,2.49,14.06,4.26,4.14,1.77,7.72,3.71,10.74,5.82,3.02,2.11,5.57,4.26,7.66,6.45,3.65,3.65,6.74,7.7,9.3,12.15,2.55,4.45,4.47,9.15,5.74,14.1,1.28,4.95,1.91,10.05,1.91,15.31s-.62,10.26-1.88,15c-1.25,4.74-3.05,9.13-5.39,13.16-2.34,4.04-5.14,7.7-8.4,10.98-3.26,3.28-7.04,6.25-11.37,8.91-3.7,2.19-7.94,3.96-12.73,5.31-4.79,1.36-11.28,2.03-19.45,2.03h-51.64v-1.25h1.56c3.59,0,6.28-1.35,8.05-4.06,1.77-2.71,2.66-5.57,2.66-8.59v-86.88c0-2.92-.48-5.36-1.45-7.34-.96-1.98-2.25-3.41-3.87-4.3-1.62-.88-3.41-1.33-5.39-1.33h-1.56ZM88.51,144.48v91.17c0,4.48.72,7.77,2.15,9.88,1.43,2.11,3.66,3.48,6.68,4.1,3.02.62,7.45.94,13.28.94,8.33,0,15.36-.82,21.09-2.46,5.73-1.64,11.28-5.3,16.64-10.98,3.96-4.22,7.13-9.38,9.53-15.47,2.4-6.09,3.59-13.46,3.59-22.11,0-6.82-.96-13.58-2.89-20.27-1.93-6.69-4.87-12.64-8.83-17.85-4.43-5.88-10.12-10.49-17.07-13.83-6.95-3.33-15.33-5-25.12-5-5.05,0-11.41.62-19.06,1.88Z"/>
      <path class="cls-1" d="M313.27,196.67c0,10.78-2.67,20.81-8.01,30.08-5.34,9.27-12.62,16.65-21.84,22.15s-19.43,8.24-30.62,8.24-21.56-2.75-30.94-8.24-16.76-12.9-22.15-22.23c-5.39-9.32-8.09-19.48-8.09-30.47,0-8.44,1.6-16.37,4.8-23.79s7.68-13.89,13.44-19.41c5.75-5.52,12.32-9.79,19.69-12.81,7.37-3.02,15.06-4.53,23.09-4.53s15.42,1.45,22.66,4.34c7.24,2.89,13.74,7.07,19.49,12.54,5.75,5.47,10.27,11.95,13.55,19.45s4.92,15.73,4.92,24.69ZM299.52,196.98c0-15.31-2.71-27.29-8.12-35.94-5.42-8.65-11.67-14.44-18.75-17.38-7.08-2.94-13.75-4.41-20-4.41-4.84,0-9.87.79-15.08,2.38-5.21,1.59-10.27,4.49-15.2,8.71s-8.97,10.16-12.15,17.81c-3.18,7.66-4.77,17.11-4.77,28.36,0,9.9,1.31,18.53,3.95,25.9,2.63,7.37,6.25,13.39,10.86,18.05,4.61,4.66,9.69,8.02,15.23,10.08,5.55,2.06,11.31,3.09,17.3,3.09,5.36,0,10.79-.95,16.29-2.85,5.49-1.9,10.52-5,15.08-9.3,4.56-4.3,8.25-10.13,11.09-17.5,2.84-7.37,4.26-16.37,4.26-26.99Z"/>
      <path class="cls-1" d="M476.55,139.01v1.33c-2.34.47-4.43,1.34-6.25,2.62-1.82,1.28-3.62,3.39-5.39,6.33-1.77,2.94-3.62,7.2-5.55,12.77l-32.27,95.08h-1.17l-29.38-95.08h-.39l-31.95,95.08h-1.17l-32.73-104.84c-1.2-3.7-2.63-6.38-4.3-8.05-1.67-1.67-3.19-2.7-4.57-3.09-1.38-.39-3.09-.66-5.12-.82v-1.33h35.7v1.33c-3.12.21-5.48,1.15-7.07,2.81-1.59,1.67-2.38,3.72-2.38,6.17,0,1.88.44,4.22,1.33,7.03l24.3,77.73h.31l26.09-77.73-1.09-3.52c-1.04-3.38-2.6-6.26-4.69-8.63-2.08-2.37-5.34-3.66-9.77-3.87v-1.33h36.8v1.33c-4.17.05-6.86,1.12-8.09,3.2-1.22,2.08-1.84,4.01-1.84,5.78,0,2.24.39,4.58,1.17,7.03l23.98,77.73h.31l24.45-72.03c.73-1.93,1.39-4.19,1.99-6.8.6-2.6.9-4.82.9-6.64,0-3.54-.77-5.75-2.3-6.64-1.54-.88-4.02-1.43-7.46-1.64v-1.33h27.58Z"/>
      <path class="cls-1" d="M603.04,139.01v1.33c-2.92.37-5.22.93-6.91,1.68-1.69.76-3.01,2.24-3.95,4.45-.94,2.21-1.41,5.4-1.41,9.57v100.94h-.78l-88.36-98.59v70.78c0,5.89.23,10.26.7,13.12.47,2.87,1.15,4.92,2.03,6.17,1.93,2.71,5.29,4.17,10.08,4.38v1.25h-28.83v-1.25c3.23-.16,5.74-.85,7.54-2.07,1.8-1.22,3.07-3.46,3.83-6.72.75-3.25,1.13-8.16,1.13-14.73v-75.08l-3.83-4.3c-3.39-3.85-6.09-6.29-8.12-7.3s-4.56-1.78-7.58-2.3v-1.33h21.64l87.03,97.5v-74.3c0-5.57-.22-9.74-.66-12.5-.44-2.76-1.62-4.97-3.52-6.64-1.9-1.67-4.88-2.58-8.95-2.73v-1.33h28.91Z"/>
      <path class="cls-1" d="M614.13,252.84h1.56c2.81,0,5.3-1.11,7.46-3.32,2.16-2.21,3.24-5.32,3.24-9.34v-86.88c0-4.79-1.21-8.12-3.63-10s-5.3-2.86-8.63-2.97v-1.33h36.8v1.33c-3.23.1-6.09,1.07-8.59,2.89-2.5,1.82-3.75,5.18-3.75,10.08v83.98c0,5,1.25,8.46,3.75,10.39,2.5,1.93,6.59,2.89,12.27,2.89h9.92c4.32,0,7.77-.52,10.35-1.56,2.58-1.04,4.62-2.63,6.13-4.77,1.51-2.13,3.05-5.16,4.61-9.06h1.33l-4.38,18.91h-68.44v-1.25Z"/>
      <path class="cls-1" d="M815.07,196.67c0,10.78-2.67,20.81-8.01,30.08-5.34,9.27-12.62,16.65-21.84,22.15s-19.43,8.24-30.62,8.24-21.56-2.75-30.94-8.24-16.76-12.9-22.15-22.23c-5.39-9.32-8.09-19.48-8.09-30.47,0-8.44,1.6-16.37,4.8-23.79s7.68-13.89,13.44-19.41c5.75-5.52,12.32-9.79,19.69-12.81,7.37-3.02,15.06-4.53,23.09-4.53s15.42,1.45,22.66,4.34c7.24,2.89,13.74,7.07,19.49,12.54,5.75,5.47,10.27,11.95,13.55,19.45s4.92,15.73,4.92,24.69ZM801.32,196.98c0-15.31-2.71-27.29-8.12-35.94-5.42-8.65-11.67-14.44-18.75-17.38-7.08-2.94-13.75-4.41-20-4.41-4.84,0-9.87.79-15.08,2.38-5.21,1.59-10.27,4.49-15.2,8.71s-8.97,10.16-12.15,17.81c-3.18,7.66-4.77,17.11-4.77,28.36,0,9.9,1.31,18.53,3.95,25.9,2.63,7.37,6.25,13.39,10.86,18.05,4.61,4.66,9.69,8.02,15.23,10.08,5.55,2.06,11.31,3.09,17.3,3.09,5.36,0,10.79-.95,16.29-2.85,5.49-1.9,10.52-5,15.08-9.3,4.56-4.3,8.25-10.13,11.09-17.5,2.84-7.37,4.26-16.37,4.26-26.99Z"/>
      <path class="cls-1" d="M874.76,137.61l34.45,98.59c1.82,5.11,3.54,8.8,5.16,11.09,1.61,2.29,3.16,3.74,4.65,4.34,1.48.6,3.37,1,5.66,1.21v1.25h-37.58v-1.25c3.85,0,6.82-.36,8.91-1.09,2.08-.73,3.12-2.71,3.12-5.94,0-1.77-.5-4.14-1.48-7.11-.21-.42-.31-.73-.31-.94l-10.23-30.55h-39.84l-9.14,28.28c-1.25,3.86-1.88,6.95-1.88,9.3,0,3.23.81,5.38,2.42,6.45,1.61,1.07,3.91,1.6,6.88,1.6v1.25h-27.03v-1.25c3.85-.36,6.94-1.84,9.26-4.41,2.32-2.58,4.34-6.5,6.05-11.76l32.5-99.06h8.44ZM848.58,203.08h36.64l-18.75-54.61h-.31l-17.58,54.61Z"/>
      <path class="cls-1" d="M932.57,140.34v-1.33h44.3c6.2,0,11.91.53,17.15,1.6,5.23,1.07,9.92,2.49,14.06,4.26,4.14,1.77,7.72,3.71,10.74,5.82,3.02,2.11,5.57,4.26,7.66,6.45,3.64,3.65,6.74,7.7,9.3,12.15,2.55,4.45,4.46,9.15,5.74,14.1,1.28,4.95,1.91,10.05,1.91,15.31s-.62,10.26-1.88,15c-1.25,4.74-3.05,9.13-5.39,13.16-2.34,4.04-5.14,7.7-8.4,10.98-3.26,3.28-7.04,6.25-11.37,8.91-3.7,2.19-7.94,3.96-12.73,5.31-4.79,1.36-11.28,2.03-19.45,2.03h-51.64v-1.25h1.56c3.59,0,6.28-1.35,8.05-4.06,1.77-2.71,2.66-5.57,2.66-8.59v-86.88c0-2.92-.48-5.36-1.45-7.34-.96-1.98-2.25-3.41-3.87-4.3-1.62-.88-3.41-1.33-5.39-1.33h-1.56ZM956.71,144.48v91.17c0,4.48.71,7.77,2.15,9.88,1.43,2.11,3.66,3.48,6.68,4.1,3.02.62,7.45.94,13.28.94,8.33,0,15.36-.82,21.09-2.46,5.73-1.64,11.28-5.3,16.64-10.98,3.96-4.22,7.13-9.38,9.53-15.47,2.39-6.09,3.59-13.46,3.59-22.11,0-6.82-.96-13.58-2.89-20.27-1.93-6.69-4.87-12.64-8.83-17.85-4.43-5.88-10.12-10.49-17.07-13.83-6.95-3.33-15.33-5-25.12-5-5.05,0-11.41.62-19.06,1.88Z"/>
      <path class="cls-1" d="M1093.98,139.01v1.33c-3.44,0-6.36.96-8.75,2.89-2.4,1.93-3.59,5.13-3.59,9.61v87.34c0,4.43,1.28,7.64,3.83,9.65,2.55,2.01,5.39,3.01,8.52,3.01v1.25h-36.48v-1.25c3.33,0,6.21-.98,8.63-2.93s3.63-5.2,3.63-9.73v-87.34c0-4.79-1.21-8.07-3.63-9.84-2.42-1.77-5.3-2.66-8.63-2.66v-1.33h36.48Z"/>
      <path class="cls-1" d="M1224.76,139.01v1.33c-2.92.37-5.22.93-6.91,1.68-1.69.76-3.01,2.24-3.95,4.45-.94,2.21-1.41,5.4-1.41,9.57v100.94h-.78l-88.36-98.59v70.78c0,5.89.23,10.26.7,13.12.47,2.87,1.14,4.92,2.03,6.17,1.93,2.71,5.29,4.17,10.08,4.38v1.25h-28.83v-1.25c3.23-.16,5.74-.85,7.54-2.07,1.8-1.22,3.07-3.46,3.83-6.72.75-3.25,1.13-8.16,1.13-14.73v-75.08l-3.83-4.3c-3.39-3.85-6.09-6.29-8.12-7.3s-4.56-1.78-7.58-2.3v-1.33h21.64l87.03,97.5v-74.3c0-5.57-.22-9.74-.66-12.5-.44-2.76-1.62-4.97-3.52-6.64-1.9-1.67-4.88-2.58-8.95-2.73v-1.33h28.91Z"/>
      <path class="cls-1" d="M1340.93,162.92h-1.25c-1.67-7.5-6.09-13.32-13.28-17.46s-15.39-6.21-24.61-6.21c-4.79,0-9.94.74-15.43,2.23-5.5,1.48-10.85,4.18-16.05,8.09-5.21,3.91-9.53,9.57-12.97,16.99s-5.16,16.76-5.16,28.01c0,17.92,4.18,32.24,12.54,42.97,8.36,10.73,21.78,16.09,40.27,16.09,7.29,0,12.66-.49,16.09-1.48,3.44-.99,5.64-2.34,6.6-4.06.96-1.72,1.45-4.04,1.45-6.95v-21.09c0-5-1.08-8.31-3.24-9.92-2.16-1.61-5.4-2.68-9.73-3.2v-1.33h37.42v1.33c-3.44.37-6.09,1.11-7.97,2.23-1.88,1.12-3.12,2.57-3.75,4.34-.62,1.77-.94,4.12-.94,7.03v32.03c-11.46,3.07-23.28,4.61-35.47,4.61-6.3,0-12.53-.52-18.67-1.56-6.15-1.04-12.55-3.36-19.22-6.95-6.67-3.59-12.55-8.91-17.66-15.94-7.66-10.57-11.48-22.53-11.48-35.86,0-7.76,1.45-15.31,4.34-22.66s7.06-13.92,12.5-19.73c5.44-5.81,12.1-10.39,19.96-13.75,7.86-3.36,16.59-5.04,26.17-5.04,3.7,0,7.32.25,10.86.74,3.54.5,8.83,1.5,15.86,3.01,2.76.62,4.74.94,5.94.94,2.55,0,4.43-1.28,5.62-3.83h1.25v26.41Z"/>
      <path class="cls-1" d="M1519.21,162.92h-1.25c-1.67-7.5-6.09-13.32-13.28-17.46s-15.39-6.21-24.61-6.21c-4.79,0-9.94.74-15.43,2.23-5.5,1.48-10.85,4.18-16.05,8.09-5.21,3.91-9.53,9.57-12.97,16.99s-5.16,16.76-5.16,28.01c0,17.92,4.18,32.24,12.54,42.97,8.36,10.73,21.78,16.09,40.27,16.09,7.29,0,12.66-.49,16.09-1.48,3.44-.99,5.64-2.34,6.6-4.06.96-1.72,1.45-4.04,1.45-6.95v-21.09c0-5-1.08-8.31-3.24-9.92-2.16-1.61-5.4-2.68-9.73-3.2v-1.33h37.42v1.33c-3.44.37-6.09,1.11-7.97,2.23-1.88,1.12-3.12,2.57-3.75,4.34-.62,1.77-.94,4.12-.94,7.03v32.03c-11.46,3.07-23.28,4.61-35.47,4.61-6.3,0-12.53-.52-18.67-1.56-6.15-1.04-12.55-3.36-19.22-6.95-6.67-3.59-12.55-8.91-17.66-15.94-7.66-10.57-11.48-22.53-11.48-35.86,0-7.76,1.45-15.31,4.34-22.66s7.06-13.92,12.5-19.73c5.44-5.81,12.1-10.39,19.96-13.75,7.86-3.36,16.59-5.04,26.17-5.04,3.7,0,7.32.25,10.86.74,3.54.5,8.83,1.5,15.86,3.01,2.76.62,4.74.94,5.94.94,2.55,0,4.43-1.28,5.62-3.83h1.25v26.41Z"/>
      <path class="cls-1" d="M1540.15,140.65h-1.56v-1.64h39.84c6.41,0,11.84.99,16.29,2.97,4.45,1.98,7.92,4.49,10.39,7.54,2.47,3.05,4.24,6.26,5.31,9.65,1.07,3.39,1.6,6.72,1.6,10,0,4.17-.87,8.16-2.62,11.99-1.75,3.83-4.43,7.12-8.05,9.88-3.62,2.76-8.14,4.64-13.55,5.62v.31c6.88,3.33,13.23,9.95,19.06,19.84l10.39,17.58c4.69,7.87,8.45,12.84,11.29,14.92,2.84,2.08,5.64,3.26,8.4,3.52v1.25h-20.94c-.89-1.14-1.72-2.25-2.5-3.32-.78-1.07-1.62-2.2-2.5-3.4-.52-.78-1.29-1.96-2.3-3.55-1.02-1.59-1.63-2.49-1.84-2.7l-13.75-22.73c-2.76-4.63-5.59-8.4-8.48-11.29s-5.59-4.96-8.09-6.21-4.75-2.03-6.76-2.34c-2.01-.31-4.36-.47-7.07-.47v42.11c0,8.18,4.17,12.4,12.5,12.66v1.25h-36.64v-1.25c2.29-.1,4.32-.53,6.09-1.29,1.77-.75,3.24-2.06,4.41-3.91,1.17-1.85,1.76-4.34,1.76-7.46v-87.03c0-4.58-1.12-7.81-3.36-9.69-2.24-1.88-4.69-2.81-7.34-2.81ZM1562.73,195.03h6.56c6.88,0,12.51-.99,16.91-2.97,4.4-1.98,7.59-4.8,9.57-8.48,1.98-3.67,2.97-8.16,2.97-13.48,0-4.43-.89-8.76-2.66-13.01-1.77-4.24-4.78-7.81-9.02-10.7-4.25-2.89-9.96-4.34-17.15-4.34-2.92,0-5.31.23-7.19.7v52.27Z"/>
      <path class="cls-1" d="M1696.24,137.61l34.45,98.59c1.82,5.11,3.54,8.8,5.16,11.09,1.61,2.29,3.16,3.74,4.65,4.34,1.48.6,3.37,1,5.66,1.21v1.25h-37.58v-1.25c3.85,0,6.82-.36,8.91-1.09,2.08-.73,3.12-2.71,3.12-5.94,0-1.77-.5-4.14-1.48-7.11-.21-.42-.31-.73-.31-.94l-10.23-30.55h-39.84l-9.14,28.28c-1.25,3.86-1.88,6.95-1.88,9.3,0,3.23.81,5.38,2.42,6.45,1.61,1.07,3.91,1.6,6.88,1.6v1.25h-27.03v-1.25c3.85-.36,6.94-1.84,9.26-4.41,2.32-2.58,4.34-6.5,6.05-11.76l32.5-99.06h8.44ZM1670.07,203.08h36.64l-18.75-54.61h-.31l-17.58,54.61Z"/>
      <path class="cls-1" d="M1848.58,164.79h-1.33c-.99-5.62-3.63-10.39-7.93-14.3s-9.23-6.76-14.8-8.55c-5.57-1.8-10.78-2.7-15.62-2.7-6.62,0-12.83,1.39-18.63,4.18-5.81,2.79-10.82,6.72-15.04,11.8s-7.5,11.17-9.84,18.28-3.52,14.83-3.52,23.16,1.13,15.56,3.4,22.46c2.27,6.9,5.57,12.89,9.92,17.97,4.35,5.08,9.39,8.92,15.12,11.52,5.73,2.61,12.08,3.91,19.06,3.91,5.83,0,12.24-1.18,19.22-3.55,6.98-2.37,13.28-6.31,18.91-11.84v4.45c-6.93,5.37-13.27,9.3-19.02,11.8-5.76,2.5-12.93,3.75-21.52,3.75-9.06,0-17.33-1.65-24.8-4.96-7.47-3.31-13.79-7.77-18.95-13.4s-9.06-11.95-11.72-18.98-3.98-14.27-3.98-21.72c0-11.2,2.76-21.6,8.28-31.21,5.52-9.61,12.99-17.21,22.42-22.81,9.43-5.6,19.66-8.4,30.7-8.4,6.82,0,14.09,1.02,21.8,3.05l8.12,2.27c1.56.31,2.89.47,3.98.47,2.03,0,3.38-.3,4.06-.9.68-.6,1.2-1.68,1.56-3.24h1.25l-1.09,27.5Z"/>
      <path class="cls-1" d="M1859.68,140.34v-1.33h68.59v18.12h-1.09c0-9.69-6.46-14.53-19.38-14.53h-23.98v52.27h21.09c4.17,0,7.89-.68,11.17-2.03,3.28-1.35,5.16-4.45,5.62-9.3h1.17v26.09h-1.17c-.47-2.97-1.36-5.25-2.66-6.84-1.3-1.59-2.59-2.64-3.87-3.16-1.28-.52-2.41-.78-3.4-.78-1.88-.31-3.83-.47-5.86-.47h-22.11v40.86c0,3.07.59,5.73,1.76,7.97,1.17,2.24,3.89,3.36,8.16,3.36h17.11c4.11,0,7.5-.6,10.16-1.8,2.66-1.2,4.75-2.86,6.29-5,1.54-2.13,2.82-4.71,3.87-7.73h1.09l-3.98,18.05h-68.59v-1.25h1.56c2.45,0,4.84-.99,7.19-2.97,2.34-1.98,3.52-5.21,3.52-9.69v-86.72c0-3.54-.79-6.61-2.38-9.22-1.59-2.6-4.36-3.91-8.32-3.91h-1.56Z"/>
      <path class="cls-1" d="M1994.44,140.34v-1.33h69.06v17.5h-1.25c-.31-3.59-1.63-6.81-3.95-9.65-2.32-2.84-6.29-4.26-11.91-4.26h-27.66v52.11h25.78c4.89,0,8.23-1,10-3.01,1.77-2,2.92-4.78,3.44-8.32h1.25v26.09h-1.25c-.31-3.28-1.39-5.98-3.24-8.09-1.85-2.11-5.25-3.16-10.2-3.16h-25.78v41.95c0,3.8,1.09,6.86,3.28,9.18,2.19,2.32,4.82,3.48,7.89,3.48h1.64v1.25h-37.11v-1.25h1.56c3.12,0,5.71-1.17,7.77-3.52,2.06-2.34,3.09-5.39,3.09-9.14v-87.03c0-4.95-1.12-8.32-3.36-10.12-2.24-1.8-4.74-2.7-7.5-2.7h-1.56Z"/>
      <path class="cls-1" d="M2077.57,140.65h-1.56v-1.64h39.84c6.41,0,11.84.99,16.29,2.97,4.45,1.98,7.92,4.49,10.39,7.54,2.47,3.05,4.24,6.26,5.31,9.65,1.07,3.39,1.6,6.72,1.6,10,0,4.17-.87,8.16-2.62,11.99-1.75,3.83-4.43,7.12-8.05,9.88-3.62,2.76-8.14,4.64-13.55,5.62v.31c6.88,3.33,13.23,9.95,19.06,19.84l10.39,17.58c4.69,7.87,8.45,12.84,11.29,14.92,2.84,2.08,5.64,3.26,8.4,3.52v1.25h-20.94c-.89-1.14-1.72-2.25-2.5-3.32-.78-1.07-1.62-2.2-2.5-3.4-.52-.78-1.29-1.96-2.3-3.55-1.02-1.59-1.63-2.49-1.84-2.7l-13.75-22.73c-2.76-4.63-5.59-8.4-8.48-11.29s-5.59-4.96-8.09-6.21-4.75-2.03-6.76-2.34c-2.01-.31-4.36-.47-7.07-.47v42.11c0,8.18,4.17,12.4,12.5,12.66v1.25h-36.64v-1.25c2.29-.1,4.32-.53,6.09-1.29,1.77-.75,3.24-2.06,4.41-3.91,1.17-1.85,1.76-4.34,1.76-7.46v-87.03c0-4.58-1.12-7.81-3.36-9.69-2.24-1.88-4.69-2.81-7.34-2.81ZM2100.15,195.03h6.56c6.88,0,12.51-.99,16.91-2.97,4.4-1.98,7.59-4.8,9.57-8.48,1.98-3.67,2.97-8.16,2.97-13.48,0-4.43-.89-8.76-2.66-13.01-1.77-4.24-4.78-7.81-9.02-10.7-4.25-2.89-9.96-4.34-17.15-4.34-2.92,0-5.31.23-7.19.7v52.27Z"/>
      <path class="cls-1" d="M2295.3,196.67c0,10.78-2.67,20.81-8.01,30.08-5.34,9.27-12.62,16.65-21.84,22.15s-19.43,8.24-30.62,8.24-21.56-2.75-30.94-8.24-16.76-12.9-22.15-22.23c-5.39-9.32-8.09-19.48-8.09-30.47,0-8.44,1.6-16.37,4.8-23.79s7.68-13.89,13.44-19.41c5.75-5.52,12.32-9.79,19.69-12.81,7.37-3.02,15.06-4.53,23.09-4.53s15.42,1.45,22.66,4.34c7.24,2.89,13.74,7.07,19.49,12.54,5.75,5.47,10.27,11.95,13.55,19.45s4.92,15.73,4.92,24.69ZM2281.55,196.98c0-15.31-2.71-27.29-8.12-35.94-5.42-8.65-11.67-14.44-18.75-17.38-7.08-2.94-13.75-4.41-20-4.41-4.84,0-9.87.79-15.08,2.38-5.21,1.59-10.27,4.49-15.2,8.71s-8.97,10.16-12.15,17.81c-3.18,7.66-4.77,17.11-4.77,28.36,0,9.9,1.31,18.53,3.95,25.9,2.63,7.37,6.25,13.39,10.86,18.05,4.61,4.66,9.69,8.02,15.23,10.08,5.55,2.06,11.31,3.09,17.3,3.09,5.36,0,10.79-.95,16.29-2.85,5.49-1.9,10.52-5,15.08-9.3,4.56-4.3,8.25-10.13,11.09-17.5,2.84-7.37,4.26-16.37,4.26-26.99Z"/>
      <path class="cls-1" d="M2431.63,139.01v1.33c-2.19.26-3.75.48-4.69.66-.94.18-1.98.72-3.12,1.6-1.77,1.35-2.88,2.63-3.32,3.83-.44,1.2-.72,3.28-.82,6.25-.16.47-.16.94,0,1.41l3.98,85.47c.1,3.59.96,6.69,2.58,9.3,1.61,2.61,5.13,3.93,10.55,3.98v1.25h-37.27v-1.25c4.89-.52,8.2-1.94,9.92-4.26,1.72-2.32,2.45-5.92,2.19-10.82l-3.98-88.44h-.31l-40.62,104.77-38.44-100.94h-.31l-4.14,81.56c-.21,4.48.06,7.96.82,10.43.75,2.47,1.96,4.25,3.63,5.31,1.67,1.07,4.14,1.86,7.42,2.38v1.25h-28.98v-1.25c3.7-.05,6.51-.94,8.44-2.66,1.93-1.72,3.19-3.87,3.79-6.45.6-2.58,1.05-6.11,1.37-10.59l4.61-84.38c0-.31-.31-.87-.94-1.68-.62-.81-1.39-1.61-2.3-2.42-.91-.81-1.79-1.45-2.62-1.91-1.77-1.09-3.31-1.73-4.61-1.91-1.3-.18-3.12-.35-5.47-.51v-1.33h26.72l35.62,94.14,36.17-94.14h24.14Z"/>
      <path class="cls-1" d="M2589.37,191.67v-38.52c0-3.75-1.02-6.82-3.05-9.22-2.03-2.4-5.18-3.59-9.45-3.59v-1.33h36.64v1.33c-4.27,0-7.4,1.19-9.38,3.55-1.98,2.37-2.97,5.46-2.97,9.26v87.03c0,8.44,4.11,12.66,12.34,12.66v1.25h-36.64v-1.25c3.91,0,6.96-1.05,9.18-3.16,2.21-2.11,3.32-5.22,3.32-9.34v-45.16h-65.94v45c0,4.01,1.13,7.12,3.4,9.34,2.27,2.21,5.3,3.32,9.1,3.32v1.25h-36.64v-1.25c3.96,0,6.99-1.11,9.1-3.32,2.11-2.21,3.16-5.32,3.16-9.34v-87.03c0-8.54-4.09-12.81-12.27-12.81v-1.33h36.64v1.33c-4.32,0-7.49,1.19-9.49,3.55-2.01,2.37-3.01,5.46-3.01,9.26v38.52h65.94Z"/>
      <path class="cls-1" d="M2624.37,140.34v-1.33h68.59v18.12h-1.09c0-9.69-6.46-14.53-19.38-14.53h-23.98v52.27h21.09c4.17,0,7.89-.68,11.17-2.03,3.28-1.35,5.16-4.45,5.62-9.3h1.17v26.09h-1.17c-.47-2.97-1.36-5.25-2.66-6.84-1.3-1.59-2.59-2.64-3.87-3.16-1.28-.52-2.41-.78-3.4-.78-1.88-.31-3.83-.47-5.86-.47h-22.11v40.86c0,3.07.59,5.73,1.76,7.97,1.17,2.24,3.89,3.36,8.16,3.36h17.11c4.11,0,7.5-.6,10.16-1.8,2.66-1.2,4.75-2.86,6.29-5,1.54-2.13,2.82-4.71,3.87-7.73h1.09l-3.98,18.05h-68.59v-1.25h1.56c2.45,0,4.84-.99,7.19-2.97,2.34-1.98,3.52-5.21,3.52-9.69v-86.72c0-3.54-.79-6.61-2.38-9.22-1.59-2.6-4.36-3.91-8.32-3.91h-1.56Z"/>
      <path class="cls-1" d="M2758.51,137.61l34.45,98.59c1.82,5.11,3.54,8.8,5.16,11.09,1.61,2.29,3.16,3.74,4.65,4.34,1.48.6,3.37,1,5.66,1.21v1.25h-37.58v-1.25c3.85,0,6.82-.36,8.91-1.09,2.08-.73,3.12-2.71,3.12-5.94,0-1.77-.5-4.14-1.48-7.11-.21-.42-.31-.73-.31-.94l-10.23-30.55h-39.84l-9.14,28.28c-1.25,3.86-1.88,6.95-1.88,9.3,0,3.23.81,5.38,2.42,6.45,1.61,1.07,3.91,1.6,6.88,1.6v1.25h-27.03v-1.25c3.85-.36,6.94-1.84,9.26-4.41,2.32-2.58,4.34-6.5,6.05-11.76l32.5-99.06h8.44ZM2732.33,203.08h36.64l-18.75-54.61h-.31l-17.58,54.61Z"/>
      <path class="cls-1" d="M2899.6,139.01v1.33c-2.92.37-5.34,1.35-7.27,2.97-1.93,1.62-3.57,3.71-4.92,6.29-1.36,2.58-2.89,6-4.61,10.27-.26.26-.52.89-.78,1.88l-33.28,95.39h-1.09l-39.22-103.2c0-.21-.11-.52-.31-.94-1.51-4.43-3.5-7.66-5.98-9.69-2.47-2.03-5.56-3.02-9.26-2.97v-1.33h37.81v1.33c-3.18.31-5.73.94-7.66,1.88-1.93.94-2.89,3.18-2.89,6.72,0,.94.42,2.87,1.25,5.78.1.26.2.53.27.82.08.29.14.51.2.66l30.23,80.78h.31l25.94-75.23c1.82-5.16,2.73-9.04,2.73-11.64,0-4.11-.87-6.72-2.62-7.81-1.75-1.09-4.34-1.74-7.77-1.95v-1.33h28.91Z"/>
      <path class="cls-1" d="M2907.02,140.34v-1.33h68.59v18.12h-1.09c0-9.69-6.46-14.53-19.38-14.53h-23.98v52.27h21.09c4.17,0,7.89-.68,11.17-2.03,3.28-1.35,5.16-4.45,5.62-9.3h1.17v26.09h-1.17c-.47-2.97-1.36-5.25-2.66-6.84-1.3-1.59-2.59-2.64-3.87-3.16-1.28-.52-2.41-.78-3.4-.78-1.88-.31-3.83-.47-5.86-.47h-22.11v40.86c0,3.07.59,5.73,1.76,7.97,1.17,2.24,3.89,3.36,8.16,3.36h17.11c4.11,0,7.5-.6,10.16-1.8,2.66-1.2,4.75-2.86,6.29-5,1.54-2.13,2.82-4.71,3.87-7.73h1.09l-3.98,18.05h-68.59v-1.25h1.56c2.45,0,4.84-.99,7.19-2.97,2.34-1.98,3.52-5.21,3.52-9.69v-86.72c0-3.54-.79-6.61-2.38-9.22-1.59-2.6-4.36-3.91-8.32-3.91h-1.56Z"/>
      <path class="cls-1" d="M3107.88,139.01v1.33c-2.92.37-5.22.93-6.91,1.68-1.69.76-3.01,2.24-3.95,4.45-.94,2.21-1.41,5.4-1.41,9.57v100.94h-.78l-88.36-98.59v70.78c0,5.89.23,10.26.7,13.12.47,2.87,1.14,4.92,2.03,6.17,1.93,2.71,5.29,4.17,10.08,4.38v1.25h-28.83v-1.25c3.23-.16,5.74-.85,7.54-2.07,1.8-1.22,3.07-3.46,3.83-6.72.75-3.25,1.13-8.16,1.13-14.73v-75.08l-3.83-4.3c-3.39-3.85-6.09-6.29-8.12-7.3s-4.56-1.78-7.58-2.3v-1.33h21.64l87.03,97.5v-74.3c0-5.57-.22-9.74-.66-12.5-.44-2.76-1.62-4.97-3.52-6.64-1.9-1.67-4.88-2.58-8.95-2.73v-1.33h28.91Z"/>
    </g>
  </g>
</svg>