<?xml version="1.0" encoding="UTF-8"?>
<svg id="Layer_1" xmlns="http://www.w3.org/2000/svg" version="1.1" viewBox="0 0 500 500">
  <!-- Generator: Adobe Illustrator 29.1.0, SVG Export Plug-In . SVG Version: 2.1.0 Build 142)  -->
  <defs>
    <style>
      .st0 {
        fill: #ed7a0a;
      }

      .st1 {
        stroke: #000;
        stroke-miterlimit: 10;
      }
    </style>
  </defs>
  <path class="st1" d="M-370.5,112.5"/>
  <g>
    <path class="st0" d="M197.2,200.6c10.4,0,15.2.3,24.3,1.7,2.5.4,4.8.7,5.1.7h.6c0,0-.1-1.3-.1-1.3,0-.7-.3-6.6-.6-13-.5-11.2-.6-13.4-.8-17.2,0-1.5-.6-12.5-1.4-28.7,0-2.1-.2-4.8-.3-6v-2.2c-.1,0-1.2-.2-1.2-.2-4.7-.8-12.5-1.8-18.2-2.3-3.7-.3-14.9-.5-17.5-.3-6.2.6-11.4,1.9-15,3.7-4.4,2.3-6.5,5-7.6,10.1-.3,1.2-.3.6-.2,37.9,0,16.8.1,25.5.2,25.5s.7-.4,1.3-.9c4.4-3.5,9.9-5.8,16.2-6.8,4.6-.7,6.6-.8,15.2-.8Z"/>
    <path class="st0" d="M158.3,146.1l-.4-1.3c-1.6-5.3-5.2-8.7-11.4-10.7-2-.7-5.5-1.4-8.2-1.8-1.6-.2-12.9-.4-14.6-.2-.5,0-2.1.1-3.7.3-4.9.3-10.8,1.1-15.8,1.9-1.5.3-3.2.5-3.9.7-1,.2-1.3.3-1.4.6,0,.2-.2,1.9-.3,3.7,0,1.8-.3,6.9-.5,11.2-.2,4.4-.5,10.7-.6,14.2-.3,5.8-.3,7.3-.5,12.2,0,1.1-.2,4.8-.4,8.3-.2,3.5-.4,9.1-.6,12.3-.1,3.3-.2,5.9-.2,6,0,0,1.4-.1,3.2-.4,6.9-1,14.3-1.7,20.5-2.1,4.4-.3,13.3-.1,16.7.3,8.6,1,15.2,3.1,20.3,6.5.9.6,1.7,1.1,1.8,1.2.2.1.2-5.9.2-31.3v-31.4Z"/>
    <path class="st0" d="M229.9,214.8l-4.1-.7c-9.7-1.5-16.7-2.3-24.9-2.7-18-.8-29.6,2.1-34.1,8.8-.5.7-.8,1.3-.8,1.4.2.2,2.6-.7,4.2-1.5.9-.4,2-1.2,2.6-1.7,1-.9,1.1-.9,2-.8.5,0,4.1.3,7.9.5,12.2.8,29.6,1.9,40.8,2.7,5.9.4,10.8.7,10.8.7,0,0-1-1.5-2.2-3.3l-2.2-3.3Z"/>
    <path class="st0" d="M153.5,217.9c-4-3.7-10.3-5.6-20.7-6.2-7.9-.5-18.3.2-29.8,1.8-6.7,1-9.2,1.4-9.4,1.7-.3.4-4.3,6.6-4.2,6.6,0,0,4.7-.3,10.3-.6,13.8-1,18.9-1.3,34.4-2.4,7.2-.5,13.7-1,14.4-1h1.2c0-.1.8.6.8.6.4.4,1.2,1,1.7,1.3,1,.6,3.7,1.7,4,1.6.3,0-1.5-2.5-2.5-3.4Z"/>
    <path class="st0" d="M75.3,145.9v1.7c-.2.9-.5,7-1,13.6-.4,6.5-.8,12.5-.8,13.3,0,.7-.4,6.1-.7,11.9-.3,5.8-1.1,18.5-1.7,28.3-.6,9.8-1.1,17.8-1.1,17.9,0,0,4.8-.3,4.8-.4s-.3-1.1-.7-2.4l-.8-2.3v-2.7c.2-1.5.3-3.2.3-3.8,0-.6.3-5.2.6-10.3,1.1-19.2,2-33.6,2.1-35.6.2-2.9.6-10.4,1.1-18.4.2-4.3.5-8.5.5-9.3v-1.4c.1,0-1.3,0-1.3,0h-1.5Z"/>
    <path class="st0" d="M90.6,153.6c.2-4.1.4-8.2.5-9.1,0-.9,0-1.6,0-1.6s-1.3,1.7-2.8,3.8l-2.8,3.8v2.1c-.2,1.2-.3,2.8-.3,3.6,0,.8-.2,3.8-.4,6.6-.1,2.8-.4,8.2-.6,12.1-.2,3.8-.5,10-.7,13.7-.2,3.7-.5,9.1-.6,11.9-.1,2.8-.3,5.7-.4,6.4-.2,3.5-.3,6.7-.1,6.6,0-.1,1.4-2,2.9-4.3l2.7-4.1v-2c.3-3.2.4-5,.7-10.9.4-7.8,1-19.4,1.3-25.7.1-2.9.4-8.7.6-12.8Z"/>
    <path class="st0" d="M404.2,395.5c-14.4,3.6-21.6-4.3-31.4-12-2.7-2.1-5.4-4.1-8-6.2-.9-1-.7-2.6.5-3.3l57.1-16.1c2.4-.4,2.4-3.2-.1-3.1l-67.2,18.9c-13.9,2.6-18.6-15.2-6-19.6,5.5-1.9,11.8-3.4,17.5-5.1,9.5-2.8,18.9-5.7,28.4-8.5,3.8-1.5,5.2-3.9,7.8-6.6,11.5-11.9,28.5-19.2,45.7-18.6,7.8.3,12.7,3.7,19.5,6.5,7.8,3.2,12.9.1,20.2-1.8.9-.2,1.6-.5,2.5-.5,5.4-18.9,8.7-38.7,9.5-59.1l-81.1,24c-14.4,3.6-21.6-4.3-31.4-12-2.7-2.1-5.4-4.1-8-6.2-.9-1-.7-2.6.5-3.3l57.1-16.1c2.4-.4,2.4-3.2-.1-3.1l-67.2,18.9c-13.9,2.6-18.6-15.2-6-19.6,5.5-1.9,11.8-3.4,17.5-5.1,9.5-2.8,18.9-5.7,28.4-8.5,3.8-1.5,5.2-3.9,7.8-6.6,11.5-11.9,28.5-19.2,45.7-18.6,7.8.3,12.7,3.7,19.5,6.5,5.6,2.3,9.9,1.3,14.6-.1-3.8-23.7-10.8-46.2-20.7-67.2-.9.7-1.9,1.4-3,1.8l-85.5,25.3c-14.4,3.6-21.6-4.3-31.4-12-2.7-2.1-5.4-4.1-8-6.2-.9-1-.7-2.6.5-3.3l57.1-16.1c2.4-.4,2.4-3.2-.1-3.1l-67.2,18.9c-13.9,2.6-18.6-15.2-6-19.6,5.5-1.9,11.8-3.4,17.5-5.1,9.5-2.8,18.9-5.7,28.4-8.5,3.8-1.5,5.2-3.9,7.8-6.6,11.5-11.9,28.5-19.2,45.7-18.6,5.4.2,9.4,1.9,13.6,3.8C399.8,36.7,329.2,0,250.1,0,112,0,0,111.9,0,250.1s1,26,3,38.5c.6.1,1.2.3,1.8.4,9.5,2.3,16.1,6,26.2,2.2,8.7-3.3,15.1-7.4,25.2-7.7,22.3-.7,44.4,8,59.2,22.1,3.4,3.2,5.1,6.1,10.1,7.9,12.3,3.3,24.5,6.7,36.8,10.1,7.4,2,15.5,3.7,22.6,6,16.3,5.2,10.2,26.3-7.7,23.3l-87.1-22.5c-3.3,0-3.3,3.3-.1,3.7l74,19.1c1.5.9,1.9,2.7.7,4-3.4,2.5-7,4.9-10.4,7.4-12.8,9.2-22,18.5-40.8,14.3l-90.9-24.7c39.5,86.1,126.5,145.9,227.4,145.9s171.8-49.3,215.3-122.8l-61.3,18.1ZM358.3,348.2c-1.7-1.3-3.5-2.6-5.3-4-9.3-7.3-18.7-14.7-28.1-21.9-3-2-4.8-2.1-8.3-2.1-2.1,0-4.7-3.7-5.1-5.4-1.3-6.1,4.6-11.2,11-9.2,2.8.9,8.3,6,10.9,7.9,13,10,25.9,20.1,38.9,30.2v.3c.1,0-14,4.2-14,4.2ZM367.3,307.6c2.9.2,4.1,1.4,6.2,3,8.3,6.2,16.3,12.7,24.4,19,.4.3,2.7,1.8,2.7,2.1-.2.5-.7.8-1.1,1.2-1.2,1.3-2.1,2.8-3.6,3.8-.4.3-2.3,1.4-2.7,1.2-.2,0-.6-.6-.8-.8-10.5-8-20.9-16.3-31.3-24.4-2.3-3.2,3.6-5.3,6.3-5.1ZM367.3,321.6c7.4,5.8,14.9,11.5,22.3,17.3l-13.4,4-44.9-34.9c-2.1-1.4-2.9-2.4-1.3-4.6,1.3-1.7,3.5-2.9,5.7-3.1,4.8-.5,7.2,2.4,10.5,4.9,7.1,5.4,14.1,10.9,21.1,16.4ZM382,196.4c2.9.2,4.1,1.4,6.2,3,8.3,6.2,16.3,12.7,24.4,19,.4.3,2.7,1.8,2.7,2.1-.2.5-.7.8-1.1,1.2-1.2,1.3-2.1,2.8-3.6,3.8-.4.3-2.3,1.4-2.7,1.2-.2,0-.6-.6-.8-.8-10.5-8-20.9-16.3-31.3-24.4-2.3-3.2,3.6-5.3,6.3-5.1ZM344.8,192.3c1.3-1.7,3.5-2.9,5.7-3.1,4.8-.5,7.2,2.4,10.5,4.9,7.1,5.4,14.1,10.9,21.1,16.4,7.4,5.8,14.9,11.5,22.3,17.3l-13.4,4-44.9-34.9c-2.1-1.4-2.9-2.4-1.3-4.6ZM337.3,194.4c2.8.9,8.3,6,10.9,7.9,13,10,25.9,20.1,38.9,30.2v.3c.1,0-14,4.2-14,4.2-1.7-1.3-3.5-2.6-5.3-4-9.3-7.3-18.7-14.7-28.1-21.9-3-2-4.8-2.1-8.3-2.1-2.1,0-4.7-3.7-5.1-5.4-1.3-6.1,4.6-11.2,11-9.2ZM337.3,213.3l32,24.9c-3.5,1.3-7.8,1.8-10.8,4.1-1.1.9-2,2.2-3,3-.8.7-2,.8-2.9.3-7.9-6.5-16.3-12.4-24.3-18.9-1.6-1.3-3.1-2.5-3.7-4.5-2.3-7.2,5.9-13,12.6-9ZM350.9,82.5c2.9.2,4.1,1.4,6.2,3,8.3,6.2,16.3,12.7,24.4,19,.4.3,2.7,1.8,2.7,2.1-.2.5-.7.8-1.1,1.2-1.2,1.3-2.1,2.8-3.6,3.8-.4.3-2.3,1.4-2.7,1.2-.2,0-.6-.6-.8-.8-10.5-8-20.9-16.3-31.3-24.4-2.3-3.2,3.6-5.3,6.3-5.1ZM313.8,78.4c1.3-1.7,3.5-2.9,5.7-3.1,4.8-.5,7.2,2.4,10.5,4.9,7.1,5.4,14.1,10.9,21.1,16.4,7.4,5.8,14.9,11.5,22.3,17.3l-13.4,4-44.9-34.9c-2.1-1.4-2.9-2.4-1.3-4.6ZM306.2,80.6c2.8.9,8.3,6,10.9,7.9,13,10,25.9,20.1,38.9,30.2v.3c.1,0-14,4.2-14,4.2-1.7-1.3-3.5-2.6-5.3-4-9.3-7.3-18.7-14.7-28.1-21.9-3-2-4.8-2.1-8.3-2.1-2.1,0-4.7-3.7-5.1-5.4-1.3-6.1,4.6-11.2,11-9.2ZM127.9,310.3c-.5.2-3-1.1-3.6-1.5-1.9-1.2-3.1-2.9-4.6-4.5-.5-.5-1.2-.8-1.4-1.4,0-.3,3-2.1,3.5-2.5,10.5-7.5,20.9-15.3,31.7-22.6,2.7-1.8,4.2-3.2,8-3.5,3.4-.3,11.1,2.2,8.2,6.1-13.6,9.7-27,19.5-40.7,29-.3.2-.8.8-1,.9ZM132.4,311.6c9.6-6.9,19.3-13.7,29-20.6,9.1-6.5,18.2-13.1,27.4-19.5,4.3-3,7.4-6.5,13.6-5.8,2.9.3,5.7,1.7,7.4,3.7,2.1,2.6,1,3.8-1.7,5.4l-58.2,41.5-17.3-4.7ZM154.6,317.7l.2-.4c16.8-11.9,33.6-23.9,50.5-35.9,3.3-2.4,10.5-8.4,14.1-9.4,8.2-2.4,16,3.7,14.2,10.9-.5,2.1-3.9,6.5-6.7,6.5-4.5,0-6.9,0-10.7,2.5-12.2,8.6-24.3,17.5-36.4,26.1-2.2,1.6-4.5,3.1-6.8,4.7l-18.4-5ZM235.7,305.1c-.8,2.3-2.7,3.8-4.8,5.3-10.3,7.7-21.2,14.7-31.5,22.5-1.2.5-2.8.4-3.8-.4-1.3-1-2.4-2.6-3.8-3.6-3.9-2.8-9.4-3.3-14-4.9l41.5-29.6c8.8-4.8,19.3,2.1,16.3,10.7ZM260.6,240c-.5,1.5-1.1,2.8-1.2,3-.2.2-7.3-.2-39-2.1-21.3-1.3-39.4-2.4-40.1-2.4-1.3,0-1.5,0-3.6.9-5.6,2.4-11.6,3.5-17,3-4.1-.4-7.9-1.2-13-3l-2.7-.9-5.9.4c-3.3.2-12.8.9-21.1,1.4-15.7,1-20.9,1.4-41.1,2.7-6.5.4-12,.7-12.2.7-.1,0-.7-1.4-1.4-3l-1.1-2.8.2-3c.1-1.7.3-3.5.3-4.2,0-.7.4-6.1.8-12.2s.9-12.7,1-14.9c.1-2.2.7-10.8,1.3-19.1.6-8.4,1.2-18.1,1.5-21.7.2-3.6.7-11.1,1.1-16.6.4-5.6.7-10.3.8-10.5.2-.5.3-.5,8.6-.9,3.8-.2,7.1-.3,7.3-.4.4,0,1.2-1,3.8-4.8l3.3-4.7,1.1-.2c2.5-.5,10.1-1.9,13.8-2.4,20.1-2.8,36.5-2.1,45.5,2,3.1,1.4,7.1,4.6,9,7.1l.5.6.5-.6c.3-.3,1.3-1.4,2.2-2.4,4-4,8.9-6.2,16.9-7.6,1.4-.2,3.7-.5,5.1-.6s2.9-.2,3.2-.3c1.7-.2,14.9,0,17.7.3,7.2.7,16.7,2.1,23.5,3.5.4,0,1.1,1,3.6,4.5l3.2,4.4h.7c.4,0,1.7,0,2.8.1,1.1,0,4.6.2,7.6.3,4.4.2,5.7.3,5.9.5.2.2.5,4.6,1.3,15.2,1.1,15.4,3.1,43.7,5.1,71.9l1.1,16-1,2.7ZM293.6,108.4c-2.3-7.2,5.9-13,12.6-9l32,24.9c-3.5,1.3-7.8,1.8-10.8,4.1-1.1.9-2,2.2-3,3-.8.7-2,.8-2.9.3-7.9-6.5-16.3-12.4-24.3-18.9-1.6-1.3-3.1-2.5-3.7-4.5ZM337.9,356.8c-7.9-6.5-16.3-12.4-24.3-18.9-1.6-1.3-3.1-2.5-3.7-4.5-2.3-7.2,5.9-13,12.6-9l32,24.9c-3.5,1.3-7.8,1.8-10.8,4.1-1.1.9-2,2.2-3,3-.8.7-2,.8-2.9.3Z"/>
    <path class="st0" d="M240.3,204c-.2-4.2-.7-11.6-1.7-30.4-.2-3.5-.5-9.3-.7-12.9-.2-3.6-.4-7.2-.5-8.2v-1.7c-.1,0-2.8-3.8-2.8-3.8-1.5-2.1-2.8-3.9-2.9-4-.1-.1-.2.3,0,1.6.2,2.7.3,4.4.7,11.8.2,3.8.6,11.6.9,17.2.3,5.6.7,14.2,1,19,.2,4.8.5,9.5.6,10.4v1.6c.1,0,3.1,4.3,3.1,4.3l3,4.3v-1c0-.5,0-2.2-.2-3.7,0-1.5-.2-3.5-.3-4.5Z"/>
    <path class="st0" d="M252.4,223.6c-.2-3.1-.4-6.3-.5-7,0-.7-.2-3.3-.4-5.7-.1-2.4-.6-9.4-1-15.5-1.4-21.9-1.6-25.4-2.3-35.2-.3-5.4-.7-10.6-.7-11.4,0-.9-.1-2.1-.2-2.8v-1.2c-.1,0-1.6,0-1.6,0-1.4,0-1.4,0-1.4.3s.3,5.6.7,12c.4,6.4,1.5,23.4,2.4,37.9.9,14.5,1.7,27.5,1.8,29l.2,2.7-.8,2.5c-.4,1.4-.7,2.6-.7,2.6s1.2.1,2.5.2h2.4c0,.1-.1-1.2-.1-1.2,0-.7-.3-3.9-.5-7Z"/>
  </g>
</svg>