<?xml version="1.0" encoding="UTF-8"?>
<svg id="Layer_2" data-name="Layer 2" xmlns="http://www.w3.org/2000/svg" viewBox="0 0 500 500">
  <defs>
    <style>
      .cls-1 {
        fill: #ed7a0a;
      }

      .cls-2 {
        fill: #f6ecdc;
      }
    </style>
  </defs>
  <g id="Layer_1-2" data-name="Layer 1">
    <circle class="cls-1" cx="250" cy="250" r="250"/>
    <g>
      <path class="cls-2" d="M90.27,366.33c-3.54-3.21-2.75,6.58-6.58,2.43l9.96-65.82c-4.78-11.69.34-19.89,1.67-29.43,1.98-14.19-1.68-32.75-.02-47.48-.84-3.49-40.57-13.92-46.73-17.79s-5.01-6.61,1.05-9.98l199.26-69.93c62.08,23.11,126.12,41.73,187.99,65.32,5.48,2.09,24.22,6.5,17.25,14.01l-203.32,71.64-144.87-51.01c-2.41,1.47-2.27,3.16-2.53,5.6-2.47,23.1,5.33,45.66.86,67.42l10.61,67.27c-1.1,3.92-20.38,3.56-23,1.86-1.43-.93-1.27-3.82-1.59-4.11Z"/>
      <path class="cls-2" d="M126.52,245.48l3.4-1.82,119.29,43.81,120.83-43.81,3.4,1.82v72.34c0,3.89-13.79,13.43-17.57,15.33-42.25,21.25-166.07,19.51-209.57,1.08-4.34-1.84-19.79-10.19-19.79-14.77v-73.98Z"/>
    </g>
  </g>
</svg>