<?xml version="1.0" encoding="UTF-8"?>
<svg id="Layer_2" data-name="Layer 2" xmlns="http://www.w3.org/2000/svg" viewBox="0 0 500 500">
  <defs>
    <style>
      .cls-1 {
        fill: #ed7a0a;
      }

      .cls-2 {
        fill: #f6ecdc;
      }
    </style>
  </defs>
  <g id="Layer_1-2" data-name="Layer 1">
    <circle class="cls-2" cx="250" cy="250" r="250"/>
    <g>
      <path class="cls-1" d="M327.89,143.75c-3.51,0-3.51,8.45,0,8.45h71.23c.44,0,1.95-1.23,2.82-1.41v-5.63c-.93-.22-2.16-1.3-2.82-1.41h-71.23Z"/>
      <path class="cls-1" d="M400.33,122.02h-74.25l-1.14,5.28,1.74,1.96h73.65c2.4,0,2.4-7.24,0-7.24Z"/>
      <path class="cls-1" d="M250,0C111.93,0,0,111.93,0,250c0,107.49,67.84,199.12,163.03,234.45l-29.51-162.04h168.42l-32.8,176.87c129.13-9.77,230.86-117.64,230.86-249.28C500,111.93,388.07,0,250,0ZM212.28,112.65c47.02-8.02,55.5,59.93,13.91,67.03-46.99,8.02-55.45-59.94-13.91-67.03ZM136.53,228.85c1.58-38.98,42.15-39.28,72.42-37.41l9.69,15.07c3.72-2.94,5.5-9.27,8.42-12.68,3.88-4.51,18.38-3.48,24.75-2.99,17.42,1.33,36.52,7.96,43.47,25.35.55,1.37,3.03,8.43,3.03,9.04v50.1h-28.98v-41.04h-9.66v41.04h-85.72v-41.04h-8.45v41.04h-28.98c.46-15.44-.63-31.04,0-46.48ZM328.5,315.16H106.35v-33.8h222.15v33.8ZM384.08,180.61c-4.87,1.17-11.49.96-15.79,2.32-4.25,1.33-15.14,9.7-21.24,12.56-3.18,1.49-25.88,10.72-26.99,9.82,6.9-7.65,15.23-15.69,14.56-26.96-62.65-24.79-36.88-83.59,22.28-87.69,30.51-2.12,75.86,13.79,71.83,51.3-2.25,20.92-26.26,34.25-44.63,38.66Z"/>
    </g>
  </g>
</svg>